<?xml version="1.0" standalone="no"?>
<!DOCTYPE svg PUBLIC "-//W3C//DTD SVG 20010904//EN"
 "http://www.w3.org/TR/2001/REC-SVG-20010904/DTD/svg10.dtd">
<svg version="1.0" xmlns="http://www.w3.org/2000/svg"
width="48" height="48" >

<g 
fill="#000000" stroke="none">
<path d="M6230 7219 c-109 -12 -260 -46 -377 -84 -369 -121 -673 -378 -839
-708 -53 -103 -101 -260 -125 -398 -18 -106 -20 -151 -16 -309 6 -217 23 -328
78 -495 70 -211 174 -378 339 -546 212 -214 496 -386 980 -593 579 -246 713
-318 840 -446 104 -104 150 -213 150 -355 0 -316 -262 -527 -685 -552 -269
-15 -561 68 -757 217 -96 73 -235 224 -318 345 l-70 104 -48 -28 c-26 -15
-225 -130 -442 -256 -217 -125 -396 -229 -398 -231 -6 -4 47 -103 95 -177 233
-364 567 -632 983 -790 471 -179 1098 -207 1595 -71 378 104 689 309 887 585
237 331 315 784 216 1264 -71 346 -260 626 -592 876 -185 140 -514 314 -901
478 -560 237 -750 357 -828 523 -64 137 -62 320 4 450 27 53 112 143 165 174
189 111 488 103 692 -18 78 -46 192 -164 263 -272 33 -50 64 -91 69 -91 19 0
839 531 840 543 0 18 -97 168 -175 267 -87 112 -245 260 -355 334 -218 146
-470 231 -774 260 -126 13 -386 12 -496 0z"/>
<path d="M2840 5243 c0 -1230 -4 -1953 -10 -1998 -25 -172 -70 -282 -150 -363
-91 -92 -238 -142 -417 -142 -228 1 -393 85 -536 276 -54 72 -85 121 -175 274
-7 12 -53 -13 -238 -124 -126 -77 -327 -198 -446 -270 -120 -72 -218 -133
-218 -136 0 -3 27 -54 60 -114 337 -605 927 -915 1680 -882 195 8 291 21 440
57 553 137 909 491 1044 1040 64 262 60 114 63 2312 l4 1997 -551 0 -550 0 0
-1927z"/>
</g>
</svg>
